<?xml version="1.0" standalone="no"?>
<!DOCTYPE svg PUBLIC "-//W3C//DTD SVG 20010904//EN"
 "http://www.w3.org/TR/2001/REC-SVG-20010904/DTD/svg10.dtd">
<svg version="1.0" xmlns="http://www.w3.org/2000/svg"
 width="50.000000pt" height="50.000000pt" viewBox="0 0 50.000000 50.000000"
 preserveAspectRatio="xMidYMid meet">

<g transform="translate(0.000000,50.000000) scale(0.100000,-0.100000)"
fill="#000000" stroke="none">
<path d="M70 250 l0 -230 136 0 c87 0 133 4 129 10 -4 6 -57 10 -126 10 l-119
0 0 210 0 210 100 0 100 0 0 -60 0 -60 60 0 60 0 0 -50 c0 -27 5 -50 10 -50 6
0 10 26 10 58 0 57 0 58 -63 120 l-63 62 -117 0 -117 0 0 -230z m285 150 l39
-40 -42 0 -42 0 0 40 c0 22 1 40 3 40 2 0 21 -18 42 -40z"/>
<path d="M150 250 c0 -6 40 -10 100 -10 60 0 100 4 100 10 0 6 -40 10 -100 10
-60 0 -100 -4 -100 -10z"/>
<path d="M342 202 c-43 -16 -44 -18 -39 -55 7 -49 37 -106 69 -130 24 -18 27
-18 51 -2 31 20 77 108 77 145 0 22 -7 29 -47 43 -57 20 -56 20 -111 -1z m103
-18 c35 -14 37 -18 31 -47 -9 -44 -53 -107 -75 -107 -23 0 -46 25 -66 73 -22
52 -19 65 18 81 42 19 48 19 92 0z"/>
<path d="M150 190 c0 -6 28 -10 65 -10 37 0 65 4 65 10 0 6 -28 10 -65 10 -37
0 -65 -4 -65 -10z"/>
<path d="M150 130 c0 -6 30 -10 71 -10 44 0 68 4 64 10 -3 6 -35 10 -71 10
-36 0 -64 -4 -64 -10z"/>
</g>
</svg>
